<?xml version="1.0" encoding="utf-8"?>
<!-- Generator: Adobe Illustrator 28.0.0, SVG Export Plug-In . SVG Version: 6.00 Build 0)  -->
<svg version="1.1" id="STARS" xmlns="http://www.w3.org/2000/svg" xmlns:xlink="http://www.w3.org/1999/xlink" x="0px" y="0px"
	 viewBox="0 0 711.6 711.6" style="enable-background:new 0 0 711.6 711.6;" xml:space="preserve">
<style type="text/css">
	.st0{fill:#A6192E;}
	.st1{fill:#FFFFFF;}
</style>
<circle class="st0" cx="355.8" cy="355.8" r="355.8"/>
<path class="st1" d="M420.5,286.6c-3,2.6-12.8,15-16.8,13.6c-6-9.8,3-15.3,3-15.3c1-2.6,27.7-29.6-1.4-52.9
	c1.9-1.2,8.2-49.7-41.8-51.1c9-0.8,6.8-4.4,6.8-4.4c-4.6-8-23.4-7.6-29.2-1.2c0,0-1.4,2.6,5.5,5.5c-46.5,1.4-42.1,49.8-40.2,51.1
	c0,0-34,23.2-1.9,52.9c0,0,9.8,5,5.5,15.4c0,0-7,1.4-19.6-13.8c-20-29.6,2-55.7,2-55.7c-3-19.2,9.6-50.5,39.7-59.5
	c8.8-14.8,38-16,47.9,0c33.4,10,40.4,40.2,37.8,58.3C418,229.8,442.4,254.8,420.5,286.6L420.5,286.6z M317.2,223.9
	c0-14.4,7.4-27,18.2-27c10.2,0,17.2,11.4,16.8,25.2c-0.6,16.6-9,25.8-16.8,25.8c-8.8,0.1-18.2-9.9-18.2-23.9V223.9z M360.3,293.5
	c25.6,0,33.6-16.2,38.1-23.6c0,0,4.2-7.4-4.4-5l-6.2,10.4c2.8-24-12.2-19.8-12.2-19.8s-11.2,3.2-15,31.2c-0.8,1-4.6,1-4.6,1
	s-13.8,0-26.4-12.6c-4.2-5.2-7-3.2-7-3.2s-2.8,1.9,0,5.5C334.9,293.5,360.3,293.5,360.3,293.5L360.3,293.5z M321.5,224.1
	c0,0,0,9.2,5.2,14.8c-2.6-14.6,2.6-19.2,8.8-19.2c5.5,0,11.4,4.6,7.6,20c5-5.2,5.4-15.6,5.4-15.6c0.6-12.2-4.2-23.8-11.8-23.8
	C328.2,200.1,321.5,211.8,321.5,224.1L321.5,224.1z M359.1,224.1c-0.2-14.4,8.6-27,18.5-27c10.8,0,17,11.4,17,25.2
	c0,16.6-7.4,25.8-17,25.8C370.1,248.1,359.3,238,359.1,224.1L359.1,224.1L359.1,224.1z M363.5,224.1c0,0,0,9.2,6.6,14.8
	c-2.6-14.6,2.2-19.2,7.4-19.2c6,0,11.6,4.6,8.4,20c5.5-5.2,5.5-15.6,5.5-15.6c0.2-12.2-5.5-21.8-14-21.8
	C371.3,202.2,363.5,211.8,363.5,224.1L363.5,224.1L363.5,224.1z"/>
<g>
	<g>
		<path class="st1" d="M132.6,411v-52.3c0-2.1,0-4.2,0.1-6.4c0.1-2.2,0.1-4.2,0.2-6.1c0.1-2.2,0.2-4.3,0.3-6.3
			c-0.9,3.2-1.7,6.3-2.5,9.2c-0.3,1.2-0.7,2.5-1,3.8c-0.4,1.3-0.7,2.6-1.1,3.8c-0.3,1.2-0.7,2.4-1,3.4c-0.3,1.1-0.6,2-0.9,2.8
			L111.2,411H98.4l-15.6-48.2c-0.2-0.8-0.5-1.7-0.8-2.8c-0.3-1.1-0.6-2.2-1-3.4c-0.3-1.2-0.7-2.5-1.1-3.8s-0.7-2.6-1.1-3.8
			c-0.8-2.9-1.7-6-2.6-9.2c0.1,2.4,0.2,4.7,0.4,7c0.1,2,0.2,4,0.2,6.2c0.1,2.2,0.1,4,0.1,5.6V411h-16v-86.3h24.2l15.4,48.3
			c0.4,1.3,0.8,2.8,1.3,4.7c0.5,1.8,0.9,3.6,1.4,5.3c0.5,2,1,4.1,1.6,6.2c0.6-2.1,1.1-4.2,1.7-6.1c0.2-0.9,0.5-1.7,0.7-2.6
			s0.5-1.8,0.7-2.6c0.2-0.9,0.5-1.7,0.7-2.5s0.5-1.5,0.7-2.1l15.2-48.6h24.1V411H132.6z"/>
		<path class="st1" d="M165.5,411v-86.3h18.1V411H165.5z"/>
		<path class="st1" d="M240.6,398c3.4,0,6.3-0.5,8.8-1.4c2.5-1,4.6-2.2,6.4-3.8c1.8-1.6,3.3-3.3,4.5-5.3s2.2-3.9,3-5.9l15.7,5.9
			c-1.3,3.1-2.9,6.1-5,9.1c-2,3-4.6,5.6-7.7,7.9s-6.7,4.1-10.9,5.5c-4.2,1.4-9.2,2.1-14.9,2.1c-7.5,0-14-1.1-19.4-3.3
			c-5.5-2.2-10-5.3-13.6-9.3s-6.2-8.7-8-14.2c-1.7-5.5-2.6-11.5-2.6-18c0-6.7,0.9-12.8,2.6-18.3c1.7-5.4,4.4-10.1,7.9-13.9
			s8-6.8,13.3-8.8c5.4-2.1,11.7-3.1,19-3.1c5.6,0,10.6,0.6,14.8,1.8c4.2,1.2,7.9,2.8,11,5c3.1,2.1,5.6,4.7,7.7,7.6
			c2,2.9,3.6,6.1,4.7,9.7l-15.9,4.4c-0.6-1.8-1.5-3.6-2.6-5.3c-1.2-1.7-2.7-3.2-4.5-4.5c-1.8-1.3-4-2.4-6.4-3.2
			c-2.5-0.8-5.2-1.2-8.3-1.2c-4.4,0-8.1,0.7-11.3,2.1c-3.1,1.4-5.7,3.4-7.8,6c-2,2.6-3.5,5.8-4.5,9.4c-1,3.7-1.4,7.8-1.4,12.3
			s0.5,8.6,1.4,12.3c1,3.7,2.5,7,4.5,9.6c2,2.7,4.7,4.8,7.9,6.3C232.3,397.3,236.2,398,240.6,398z"/>
		<path class="st1" d="M346.8,411v-37h-37.6v37H291v-86.3h18.1v34.4h37.6v-34.4h18.1V411H346.8z"/>
		<path class="st1" d="M381.6,411v-86.3h67.9v14h-49.8v21.7h46.1v14h-46.1v22.7H452v14h-70.4V411z"/>
		<path class="st1" d="M465.4,411v-86.3h18.1v72.4h46.3v14h-64.4V411z"/>
		<path class="st1" d="M541.9,411v-86.3H560V411H541.9z"/>
		<path class="st1" d="M629.4,411l-37.6-66.5c0.2,1.8,0.4,3.6,0.6,5.4c0.2,1.6,0.3,3.2,0.4,5c0.1,1.8,0.2,3.5,0.2,5.1v51H577v-86.3
			h20.6l38.2,67c-0.2-1.7-0.4-3.5-0.6-5.4c-0.2-1.6-0.3-3.4-0.4-5.4c-0.1-2-0.2-4-0.2-6.1v-50.2h16.1V411H629.4z"/>
	</g>
	<g>
		<path class="st1" d="M235.9,540.4v-7c1.9-4.3,4.1-8.1,6.8-11.3c2.7-3.3,5.5-6.2,8.5-8.9s5.9-5.1,8.8-7.4c2.9-2.3,5.5-4.5,7.9-6.8
			c2.3-2.3,4.2-4.6,5.7-7.1c1.4-2.5,2.2-5.3,2.2-8.5c0-2.2-0.3-4.1-1-5.8c-0.7-1.7-1.6-3.1-2.9-4.2c-1.2-1.1-2.7-2-4.5-2.6
			c-1.7-0.6-3.7-0.9-5.8-0.9c-2,0-3.8,0.3-5.6,0.8c-1.7,0.5-3.3,1.4-4.6,2.5c-1.4,1.1-2.5,2.5-3.3,4.1c-0.9,1.6-1.4,3.5-1.7,5.7
			l-10.1-0.9c0.3-2.8,1.1-5.4,2.3-7.9s2.9-4.6,5-6.4s4.7-3.3,7.7-4.4s6.4-1.6,10.3-1.6c3.8,0,7.3,0.5,10.3,1.4s5.5,2.3,7.6,4.1
			c2.1,1.8,3.7,4,4.7,6.6c1.1,2.6,1.6,5.7,1.6,9.1c0,2.6-0.5,5.1-1.4,7.4s-2.2,4.6-3.7,6.7c-1.6,2.1-3.4,4.2-5.4,6.1
			c-2,2-4.2,3.9-6.4,5.8c-2.2,1.9-4.5,3.8-6.8,5.6s-4.4,3.7-6.4,5.6c-2,1.9-3.8,3.8-5.4,5.7c-1.6,1.9-2.8,3.9-3.7,6h40.5v8.4h-51.2
			V540.4z"/>
		<path class="st1" d="M350.9,501.7c0,7.4-0.7,13.7-2.1,18.7c-1.4,5.1-3.3,9.2-5.8,12.3c-2.4,3.1-5.3,5.4-8.6,6.7
			c-3.3,1.4-6.8,2-10.5,2c-3.8,0-7.3-0.7-10.5-2c-3.3-1.4-6.1-3.6-8.5-6.7c-2.4-3.1-4.3-7.2-5.7-12.3c-1.4-5.1-2.1-11.3-2.1-18.8
			c0-7.8,0.7-14.2,2.1-19.4c1.4-5.1,3.3-9.2,5.7-12.2c2.4-3,5.3-5.2,8.6-6.4c3.3-1.2,6.9-1.8,10.8-1.8c3.7,0,7.2,0.6,10.4,1.8
			c3.2,1.2,6.1,3.4,8.5,6.4s4.3,7.1,5.7,12.2C350.2,487.4,350.9,493.9,350.9,501.7z M340.9,501.7c0-6.1-0.4-11.3-1.1-15.3
			c-0.7-4.1-1.8-7.3-3.2-9.8c-1.4-2.4-3.2-4.2-5.2-5.2c-2.1-1-4.4-1.5-7.1-1.5c-2.8,0-5.2,0.5-7.4,1.5c-2.1,1-3.9,2.8-5.4,5.2
			c-1.4,2.4-2.5,5.7-3.3,9.8c-0.7,4.1-1.1,9.2-1.1,15.3c0,5.9,0.4,10.9,1.1,15s1.8,7.3,3.3,9.8c1.4,2.5,3.2,4.2,5.3,5.3
			c2.1,1.1,4.5,1.6,7.1,1.6s4.9-0.5,7-1.6s3.9-2.9,5.3-5.3c1.4-2.5,2.6-5.7,3.3-9.8C340.5,512.6,340.9,507.6,340.9,501.7z"/>
		<path class="st1" d="M360.9,540.4v-7c1.9-4.3,4.1-8.1,6.8-11.3c2.7-3.3,5.5-6.2,8.5-8.9s5.9-5.1,8.8-7.4c2.9-2.3,5.5-4.5,7.9-6.8
			s4.2-4.6,5.7-7.1c1.4-2.5,2.2-5.3,2.2-8.5c0-2.2-0.3-4.1-1-5.8c-0.7-1.7-1.6-3.1-2.9-4.2c-1.2-1.1-2.7-2-4.5-2.6
			c-1.7-0.6-3.7-0.9-5.8-0.9c-2,0-3.8,0.3-5.6,0.8c-1.7,0.5-3.3,1.4-4.6,2.5c-1.4,1.1-2.5,2.5-3.3,4.1c-0.9,1.6-1.4,3.5-1.7,5.7
			l-10.1-0.9c0.3-2.8,1.1-5.4,2.3-7.9c1.2-2.5,2.9-4.6,5-6.4s4.7-3.3,7.7-4.4s6.4-1.6,10.3-1.6c3.8,0,7.3,0.5,10.3,1.4
			s5.5,2.3,7.6,4.1c2.1,1.8,3.7,4,4.7,6.6c1.1,2.6,1.6,5.7,1.6,9.1c0,2.6-0.5,5.1-1.4,7.4s-2.2,4.6-3.7,6.7
			c-1.6,2.1-3.4,4.2-5.4,6.1c-2,2-4.2,3.9-6.4,5.8s-4.5,3.8-6.8,5.6s-4.4,3.7-6.4,5.6c-2,1.9-3.8,3.8-5.4,5.7s-2.8,3.9-3.7,6h40.3
			v8.4h-51V540.4z"/>
		<path class="st1" d="M475.6,515.2c0,3.9-0.6,7.4-1.8,10.7s-2.9,6-5.2,8.3c-2.3,2.3-5.2,4.1-8.6,5.4c-3.4,1.3-7.4,1.9-11.9,1.9
			c-4.1,0-7.6-0.5-10.6-1.4c-3-1-5.6-2.3-7.7-3.9c-2.1-1.7-3.7-3.6-5-5.8c-1.2-2.2-2.1-4.6-2.6-7.2l10-1.2c0.4,1.5,1,2.9,1.7,4.3
			c0.7,1.4,1.7,2.6,3,3.7c1.3,1.1,2.8,1.9,4.7,2.6c1.8,0.6,4.1,1,6.7,1s4.9-0.4,7-1.2s3.9-1.9,5.4-3.5c1.5-1.5,2.6-3.4,3.4-5.7
			c0.8-2.2,1.2-4.8,1.2-7.7c0-2.4-0.4-4.6-1.2-6.6c-0.8-2-1.9-3.7-3.3-5.2c-1.4-1.4-3.2-2.6-5.2-3.4c-2.1-0.8-4.4-1.2-7.1-1.2
			c-1.6,0-3.2,0.1-4.6,0.4s-2.7,0.7-3.9,1.2c-1.2,0.5-2.3,1.1-3.2,1.8c-1,0.7-1.9,1.4-2.7,2.1h-9.7l2.7-41.6h44v8.4h-35l-1.5,24.5
			c1.8-1.4,4-2.5,6.6-3.5s5.8-1.5,9.4-1.5c3.8,0,7.3,0.6,10.4,1.8c3.1,1.2,5.7,2.8,7.9,5c2.2,2.1,3.8,4.7,5,7.7
			C475,508.4,475.6,511.6,475.6,515.2z"/>
	</g>
</g>
</svg>
